<svg xmlns="http://www.w3.org/2000/svg" width="242" height="242" viewBox="0 0 242 242">
  <g id="Group_955" data-name="Group 955" transform="translate(-368 -1707)">
    <circle id="Ellipse_65" data-name="Ellipse 65" cx="121" cy="121" r="121" transform="translate(368 1707)" fill="#4352a3"/>
    <g id="vuesax_bold_hierarchy-square-2" data-name="vuesax/bold/hierarchy-square-2" transform="translate(-80.562 1558.938)">
      <g id="hierarchy-square-2" transform="translate(492 188)">
        <path id="Vector" d="M0,0H162.123V162.123H0Z" fill="none" opacity="0"/>
        <path id="Vector-2" data-name="Vector" d="M95.855,0H39.247C14.659,0,0,14.659,0,39.247v56.54C0,120.444,14.659,135.1,39.247,135.1h56.54c24.589,0,39.247-14.659,39.247-39.247V39.247C135.1,14.659,120.444,0,95.855,0Zm.068,109.771a13.792,13.792,0,0,1-8.376-24.791,18.721,18.721,0,0,0-17.9-12.294l-13.916.068h-.068a21.237,21.237,0,0,1-11.349-3.31V83.088a13.848,13.848,0,1,1-10.133,0V53.7a14.871,14.871,0,1,1,10.538.608,11.351,11.351,0,0,0,10.943,8.376h.068l13.916-.068h.135A29.259,29.259,0,0,1,97.409,82.277a13.78,13.78,0,0,1-1.486,27.493Z" transform="translate(13.51 13.51)" fill="#fff"/>
      </g>
    </g>
  </g>
</svg>
