<svg xmlns="http://www.w3.org/2000/svg" width="44.503" height="36.164" viewBox="0 0 44.503 36.164">
  <path id="icons8-twitter" d="M46.5,8.717a18.226,18.226,0,0,1-5.244,1.438A9.145,9.145,0,0,0,45.271,5.1a18.307,18.307,0,0,1-5.8,2.217A9.133,9.133,0,0,0,23.68,13.566a9.232,9.232,0,0,0,.236,2.08A25.919,25.919,0,0,1,5.1,6.1a9.147,9.147,0,0,0,2.826,12.19,9.111,9.111,0,0,1-4.135-1.142v.115a9.131,9.131,0,0,0,7.324,8.952,9.133,9.133,0,0,1-2.406.32,9.3,9.3,0,0,1-1.717-.163,9.141,9.141,0,0,0,8.529,6.341A18.312,18.312,0,0,1,4.178,36.628,18.343,18.343,0,0,1,2,36.5a25.848,25.848,0,0,0,14,4.1c16.794,0,25.975-13.912,25.975-25.977q0-.593-.026-1.181A18.579,18.579,0,0,0,46.5,8.717Z" transform="translate(-1.999 -4.436)" fill="#4352a3"/>
</svg>
