<svg xmlns="http://www.w3.org/2000/svg" xmlns:xlink="http://www.w3.org/1999/xlink" width="241.716" height="233.382" viewBox="0 0 241.716 233.382">
  <defs>
    <filter id="Subtraction_2" x="0" y="0" width="241.716" height="233.382" filterUnits="userSpaceOnUse">
      <feOffset input="SourceAlpha"/>
      <feGaussianBlur stdDeviation="25" result="blur"/>
      <feFlood flood-color="#f9d20b"/>
      <feComposite operator="in" in2="blur"/>
      <feComposite in="SourceGraphic"/>
    </filter>
  </defs>
  <g transform="matrix(1, 0, 0, 1, 0, 0)" filter="url(#Subtraction_2)">
    <path id="Subtraction_2-2" data-name="Subtraction 2" d="M-4030.157,169.343a42.016,42.016,0,0,1-16.287-3.249,42.009,42.009,0,0,1-7.107-3.812,42.028,42.028,0,0,1-6.193-5.048,41.739,41.739,0,0,1-5.109-6.119,41.2,41.2,0,0,1-3.858-7.023A40.667,40.667,0,0,1-4072,128h83.686a40.66,40.66,0,0,1-3.288,16.093,41.178,41.178,0,0,1-3.858,7.023,41.737,41.737,0,0,1-5.11,6.119,42.039,42.039,0,0,1-6.192,5.048,42.02,42.02,0,0,1-7.108,3.812A42.016,42.016,0,0,1-4030.157,169.343Z" transform="translate(3428.96 2423.37) rotate(37)" fill="#f9d20b"/>
  </g>
</svg>
