<svg id="svgexport-6_2_" data-name="svgexport-6 (2)" xmlns="http://www.w3.org/2000/svg" width="40.64" height="40.64" viewBox="0 0 40.64 40.64">
  <g id="Group_911" data-name="Group 911" transform="translate(31.147 7.52)">
    <g id="Group_910" data-name="Group 910">
      <path id="Path_3183" data-name="Path 3183" d="M393.388,94.739a.987.987,0,1,0,.987.987A.988.988,0,0,0,393.388,94.739Z" transform="translate(-392.401 -94.739)" fill="#4352a3"/>
    </g>
  </g>
  <g id="Group_913" data-name="Group 913" transform="translate(11.573 11.573)">
    <g id="Group_912" data-name="Group 912">
      <path id="Path_3184" data-name="Path 3184" d="M154.551,145.8a8.747,8.747,0,1,0,8.747,8.747A8.757,8.757,0,0,0,154.551,145.8Z" transform="translate(-145.804 -145.804)" fill="#4352a3"/>
    </g>
  </g>
  <g id="Group_915" data-name="Group 915">
    <g id="Group_914" data-name="Group 914">
      <path id="Path_3185" data-name="Path 3185" d="M29.5,0H11.141A11.153,11.153,0,0,0,0,11.141V29.5A11.153,11.153,0,0,0,11.141,40.64H29.5A11.153,11.153,0,0,0,40.64,29.5V11.141A11.153,11.153,0,0,0,29.5,0ZM20.32,31.467A11.147,11.147,0,1,1,31.467,20.32,11.159,11.159,0,0,1,20.32,31.467ZM32.133,11.893A3.387,3.387,0,1,1,35.52,8.506,3.39,3.39,0,0,1,32.133,11.893Z" fill="#4352a3"/>
    </g>
  </g>
</svg>
