<svg xmlns="http://www.w3.org/2000/svg" width="51.694" height="51.694" viewBox="0 0 51.694 51.694">
  <g id="vuesax_outline_folder-add" data-name="vuesax/outline/folder-add" transform="translate(-236 -188)">
    <g id="folder-add" transform="translate(236 188)">
      <path id="Vector" d="M1.615,14A1.627,1.627,0,0,1,0,12.385V1.615A1.627,1.627,0,0,1,1.615,0,1.627,1.627,0,0,1,3.231,1.615v10.77A1.627,1.627,0,0,1,1.615,14Z" transform="translate(24.361 23.155)" fill="#656565"/>
      <path id="Vector-2" data-name="Vector" d="M12.385,3.231H1.615A1.627,1.627,0,0,1,0,1.615,1.627,1.627,0,0,1,1.615,0h10.77A1.627,1.627,0,0,1,14,1.615,1.627,1.627,0,0,1,12.385,3.231Z" transform="translate(18.847 28.539)" fill="#656565"/>
      <path id="Vector-3" data-name="Vector" d="M33.924,46.309H12.385C2.886,46.309,0,43.423,0,33.924V12.385C0,2.886,2.886,0,12.385,0h3.231c3.769,0,4.954,1.228,6.462,3.231l3.231,4.308c.711.948.818,1.077,2.154,1.077h6.462c9.5,0,12.385,2.886,12.385,12.385V33.924C46.309,43.423,43.423,46.309,33.924,46.309ZM12.385,3.231C4.7,3.231,3.231,4.7,3.231,12.385V33.924c0,7.689,1.465,9.154,9.154,9.154H33.924c7.689,0,9.154-1.465,9.154-9.154V21c0-7.689-1.465-9.154-9.154-9.154H27.462a4.945,4.945,0,0,1-4.739-2.369L19.493,5.169c-1.12-1.486-1.443-1.939-3.877-1.939Z" transform="translate(2.692 2.692)" fill="#656565"/>
      <path id="Vector-4" data-name="Vector" d="M0,0H51.694V51.694H0Z" fill="none" opacity="0"/>
    </g>
  </g>
</svg>
