<svg id="vuesax_outline_home-2" data-name="vuesax/outline/home-2" xmlns="http://www.w3.org/2000/svg" width="48.577" height="48.577" viewBox="0 0 48.577 48.577">
  <g id="home-2" transform="translate(0 0)">
    <path id="Vector" d="M33.478,43.47H10.039A10.055,10.055,0,0,1,0,33.41v-15A11.135,11.135,0,0,1,3.886,10.5L14.8,2a10.521,10.521,0,0,1,11.922-.283l12.509,8.764A11.057,11.057,0,0,1,43.517,18.7V33.43A10.051,10.051,0,0,1,33.478,43.47ZM16.658,4.385l-10.91,8.5a8.226,8.226,0,0,0-2.712,5.526v15a7.023,7.023,0,0,0,7,7.023H33.478a7.006,7.006,0,0,0,7-7V18.7a8.031,8.031,0,0,0-3-5.728L24.977,4.2A7.534,7.534,0,0,0,16.658,4.385Z" transform="translate(2.53 2.578)" fill="#fff"/>
    <path id="Vector-2" data-name="Vector" d="M1.518,9.108A1.529,1.529,0,0,1,0,7.59V1.518A1.529,1.529,0,0,1,1.518,0,1.529,1.529,0,0,1,3.036,1.518V7.59A1.529,1.529,0,0,1,1.518,9.108Z" transform="translate(22.771 28.843)" fill="#fff"/>
    <g id="Vector-3" data-name="Vector" fill="#fff" opacity="0">
      <path d="M 32.07713317871094 32.07713317871094 L 16.49999809265137 32.07713317871094 L 16.49999809265137 16.49999809265137 L 32.07713317871094 16.49999809265137 L 32.07713317871094 32.07713317871094 Z" stroke="none"/>
      <path d="M -1.1444091796875e-05 -1.1444091796875e-05 L 48.57714462280273 -1.1444091796875e-05 L 48.57714462280273 48.57714462280273 L -1.1444091796875e-05 48.57714462280273 L -1.1444091796875e-05 -1.1444091796875e-05 Z" stroke="none" fill="#fff"/>
    </g>
  </g>
</svg>
