<svg xmlns="http://www.w3.org/2000/svg" width="327.92" height="327.92" viewBox="0 0 327.92 327.92">
  <g id="vuesax_outline_scan" data-name="vuesax/outline/scan" transform="translate(-364 -243)">
    <g id="scan" transform="translate(364 243)">
      <path id="Vector" d="M10.247,116.138A10.322,10.322,0,0,1,0,105.891V71.732A71.811,71.811,0,0,1,71.732,0h34.158a10.322,10.322,0,0,1,10.247,10.247,10.322,10.322,0,0,1-10.247,10.247H71.732A51.256,51.256,0,0,0,20.495,71.732v34.158A10.322,10.322,0,0,1,10.247,116.138Z" transform="translate(17.079 17.079)" fill="#656565"/>
      <path id="Vector-2" data-name="Vector" d="M105.891,116.138a10.322,10.322,0,0,1-10.247-10.247V71.732A51.256,51.256,0,0,0,44.406,20.495H10.247A10.322,10.322,0,0,1,0,10.247,10.322,10.322,0,0,1,10.247,0H44.406a71.811,71.811,0,0,1,71.732,71.732v34.158A10.322,10.322,0,0,1,105.891,116.138Z" transform="translate(194.702 17.079)" fill="#656565"/>
      <path id="Vector-3" data-name="Vector" d="M30.742,102.475H10.247a10.247,10.247,0,0,1,0-20.495H30.742A51.256,51.256,0,0,0,81.98,30.742V10.247a10.247,10.247,0,0,1,20.495,0V30.742A71.811,71.811,0,0,1,30.742,102.475Z" transform="translate(208.366 208.366)" fill="#656565"/>
      <path id="Vector-4" data-name="Vector" d="M105.891,116.138H71.732A71.811,71.811,0,0,1,0,44.406V10.247A10.322,10.322,0,0,1,10.247,0,10.322,10.322,0,0,1,20.495,10.247V44.406A51.256,51.256,0,0,0,71.732,95.643h34.158a10.247,10.247,0,0,1,0,20.495Z" transform="translate(17.079 194.702)" fill="#656565"/>
      <path id="Vector-5" data-name="Vector" d="M105.891,170.792H51.237C18.172,170.792,0,152.619,0,119.554V51.237C0,18.172,18.172,0,51.237,0h54.653c33.065,0,51.237,18.172,51.237,51.237v68.317C157.128,152.619,138.956,170.792,105.891,170.792ZM51.237,20.495c-21.588,0-30.742,9.154-30.742,30.742v68.317c0,21.588,9.154,30.742,30.742,30.742h54.653c21.588,0,30.742-9.154,30.742-30.742V51.237c0-21.588-9.154-30.742-30.742-30.742Z" transform="translate(85.396 78.564)" fill="#656565"/>
      <path id="Vector-6" data-name="Vector" d="M201.534,20.495H10.247A10.322,10.322,0,0,1,0,10.247,10.322,10.322,0,0,1,10.247,0H201.534a10.322,10.322,0,0,1,10.247,10.247A10.322,10.322,0,0,1,201.534,20.495Z" transform="translate(58.069 153.712)" fill="#656565"/>
      <path id="Vector-7" data-name="Vector" d="M0,0H327.92V327.92H0Z" fill="none" opacity="0"/>
    </g>
  </g>
</svg>
