<svg id="vuesax_bold_facebook" data-name="vuesax/bold/facebook" xmlns="http://www.w3.org/2000/svg" width="53.644" height="53.644" viewBox="0 0 53.644 53.644">
  <g id="facebook">
    <path id="BG_111" data-name="BG 111" d="M0,0H53.644V53.644H0Z" fill="none" opacity="0.58"/>
    <path id="Vector" d="M44.7,31.717c0,8.136-4.85,12.986-12.986,12.986h-2.66a2.242,2.242,0,0,1-2.235-2.235v-12.9a1.116,1.116,0,0,1,1.1-1.118l3.934-.067a.713.713,0,0,0,.648-.559l.782-4.269a.676.676,0,0,0-.671-.782l-4.761.067a1.136,1.136,0,0,1-1.14-1.1l-.089-5.476a.672.672,0,0,1,.671-.671l5.364-.089a.659.659,0,0,0,.671-.671l-.089-5.364a.659.659,0,0,0-.671-.671L26.531,8.9a6.7,6.7,0,0,0-6.594,6.817l.112,6.147a1.107,1.107,0,0,1-1.1,1.14l-2.682.045a.659.659,0,0,0-.671.671l.067,4.247a.659.659,0,0,0,.671.671l2.682-.045a1.136,1.136,0,0,1,1.14,1.1l.2,12.74a2.237,2.237,0,0,1-2.235,2.28H12.986C4.85,44.7,0,39.853,0,31.694V12.986C0,4.85,4.85,0,12.986,0H31.717C39.853,0,44.7,4.85,44.7,12.986V31.717Z" transform="translate(4.47 4.47)" fill="#4352a3"/>
    <path id="Vector-2" data-name="Vector" d="M0,0H53.644V53.644H0Z" fill="none" opacity="0"/>
  </g>
</svg>
