<svg id="vuesax_bold_whatsapp" data-name="vuesax/bold/whatsapp" xmlns="http://www.w3.org/2000/svg" width="54.932" height="54.932" viewBox="0 0 54.932 54.932">
  <g id="whatsapp">
    <path id="BG_164" data-name="BG 164" d="M0,0H54.932V54.932H0Z" fill="none" opacity="0.58"/>
    <g id="Group_962" data-name="Group 962">
      <path id="Vector" d="M45.745,21.539A22.9,22.9,0,1,0,3.058,34.333L1.021,41.909A2.281,2.281,0,0,0,3.836,44.7l7.462-2.06a22.783,22.783,0,0,0,11.581,3.136A23.241,23.241,0,0,0,45.745,21.539ZM34.072,31.4a5.462,5.462,0,0,1-.778,1.167,5.216,5.216,0,0,1-1.877,1.35,5.6,5.6,0,0,1-2.243.435,9.322,9.322,0,0,1-3.731-.847,20.963,20.963,0,0,1-3.937-2.266,33.073,33.073,0,0,1-3.754-3.2,32.733,32.733,0,0,1-3.2-3.754,20.135,20.135,0,0,1-2.243-3.914,9.692,9.692,0,0,1-.824-3.754,5.98,5.98,0,0,1,.412-2.22,5.111,5.111,0,0,1,1.328-1.923A3.308,3.308,0,0,1,15.6,11.4a2.239,2.239,0,0,1,.938.206,1.9,1.9,0,0,1,.778.641L19.973,16a3.694,3.694,0,0,1,.458.8,1.671,1.671,0,0,1,.16.71,1.641,1.641,0,0,1-.252.824,4.028,4.028,0,0,1-.641.824l-.87.916a.588.588,0,0,0-.183.458,1.148,1.148,0,0,0,.046.275,1.58,1.58,0,0,1,.092.229A9.175,9.175,0,0,0,19.858,22.5c.526.6,1.076,1.213,1.671,1.808.618.618,1.213,1.167,1.831,1.694a8.788,8.788,0,0,0,1.488,1.053c.069.023.137.069.206.092a.751.751,0,0,0,.778-.16l.87-.87a3.677,3.677,0,0,1,.824-.641,1.577,1.577,0,0,1,.824-.252,1.671,1.671,0,0,1,.71.16,4.166,4.166,0,0,1,.8.458l3.8,2.7a1.932,1.932,0,0,1,.641.732,2.393,2.393,0,0,1,.183.893C34.346,30.557,34.255,30.992,34.072,31.4Z" transform="translate(4.563 4.577)" fill="#4352a3"/>
    </g>
    <path id="Vector-2" data-name="Vector" d="M0,0H54.932V54.932H0Z" fill="none" opacity="0"/>
  </g>
</svg>
