<svg id="vuesax_bold_youtube" data-name="vuesax/bold/youtube" xmlns="http://www.w3.org/2000/svg" width="54.502" height="54.502" viewBox="0 0 54.502 54.502">
  <g id="youtube">
    <path id="BG_165" data-name="BG 165" d="M0,0H54.5V54.5H0Z" fill="none" opacity="0.58"/>
    <path id="Vector" d="M34.064,0H11.355C4.542,0,0,4.542,0,11.355V24.98c0,6.813,4.542,11.355,11.355,11.355H34.064c6.813,0,11.355-4.542,11.355-11.355V11.355C45.419,4.542,40.877,0,34.064,0ZM27,20.507l-5.609,3.361c-2.271,1.363-4.133.318-4.133-2.339V14.784c0-2.657,1.862-3.7,4.133-2.339L27,15.806C29.159,17.123,29.159,19.212,27,20.507Z" transform="translate(4.542 9.084)" fill="#4352a3"/>
    <path id="Vector-2" data-name="Vector" d="M0,0H54.5V54.5H0Z" fill="none" opacity="0"/>
  </g>
</svg>
